<?xml version="1.0" encoding="utf-8"?>
<!-- Generator: Adobe Illustrator 24.3.0, SVG Export Plug-In . SVG Version: 6.00 Build 0)  -->
<svg version="1.1" id="Layer_1" xmlns="http://www.w3.org/2000/svg" xmlns:xlink="http://www.w3.org/1999/xlink" x="0px" y="0px"
	 viewBox="0 0 18 18" style="enable-background:new 0 0 18 18;" xml:space="preserve">
<style type="text/css">
	.st0{fill:#1E1E1E;}
</style>
<g id="Layer_2_1_">
	<g id="Layer_1-2">
		<path class="st0" d="M15.8,4.2c-1.2-1-2.7-1.5-4.3-1.6l-0.2,0.2c1.4,0.4,2.7,1.1,3.8,2c-1.4-0.8-3-1.3-4.6-1.5
			c-1-0.1-2.1-0.1-3.1,0c-0.1,0-0.2,0-0.3,0c-1.2,0.2-2.4,0.5-3.5,1C3,4.6,2.6,4.7,2.6,4.7c1.2-1,2.5-1.6,4-2L6.5,2.6
			C4.9,2.6,3.4,3.2,2.2,4.2C0.8,6.9,0,10,0,13.1c1.1,1.5,2.8,2.4,4.7,2.4c0,0,0.6-0.7,1-1.3c-1.1-0.3-2-0.9-2.7-1.8
			c0.1,0.1,0.3,0.2,0.4,0.3h0.1l0.1,0.1c0.4,0.2,0.7,0.4,1.1,0.5c0.7,0.3,1.5,0.6,2.3,0.8c1.3,0.2,2.7,0.2,4,0
			c0.8-0.1,1.5-0.4,2.2-0.7c0.6-0.2,1.2-0.5,1.8-0.9c-0.7,0.9-1.7,1.6-2.8,1.8c0.5,0.6,1,1.2,1,1.2c1.9,0,3.6-0.8,4.7-2.4
			C17.9,10,17.2,6.9,15.8,4.2z M6.1,11.7c-0.9,0-1.6-0.8-1.6-1.7C4.5,9.1,5.2,8.3,6.1,8.3c0,0,0,0,0.1,0C7,8.3,7.7,9,7.7,9.9
			c0,0,0,0,0,0.1C7.7,10.9,7,11.6,6.1,11.7z M11.8,11.7c-0.9,0-1.6-0.8-1.6-1.7c0-0.9,0.6-1.7,1.5-1.7c0,0,0,0,0,0
			c0.9,0,1.6,0.8,1.6,1.7C13.4,10.9,12.6,11.6,11.8,11.7z"/>
	</g>
</g>
</svg>
