<?xml version="1.0" encoding="utf-8"?>
<!-- Generator: Adobe Illustrator 24.3.0, SVG Export Plug-In . SVG Version: 6.00 Build 0)  -->
<svg version="1.1" id="Layer_1" xmlns="http://www.w3.org/2000/svg" xmlns:xlink="http://www.w3.org/1999/xlink" x="0px" y="0px"
	 viewBox="0 0 18 18" style="enable-background:new 0 0 18 18;" xml:space="preserve">
<g id="Layer_2_1_">
	<g id="Layer_1-2">
		<path d="M3.4,5.6c0-0.2-0.1-0.4-0.2-0.5L1.8,3.5V3.2h4.3l3.3,7.2l2.9-7.2h4.1v0.2l-1.2,1.1c-0.1,0.1-0.1,0.2-0.1,0.3v8.2
			c0,0.1,0,0.3,0.1,0.3l1.1,1.1v0.2h-5.8v-0.2l1.2-1.1c0.1-0.1,0.1-0.1,0.1-0.3V6.4l-3.3,8.3H8.1L4.3,6.4V12c0,0.2,0,0.5,0.2,0.6
			L6,14.5v0.2H1.6v-0.2l1.6-1.9c0.2-0.2,0.2-0.4,0.2-0.6V5.6z"/>
	</g>
</g>
</svg>
