<?xml version="1.0" encoding="utf-8"?>
<!-- Generator: Adobe Illustrator 19.0.0, SVG Export Plug-In . SVG Version: 6.00 Build 0)  -->
<svg version="1.1" id="Layer_1" xmlns="http://www.w3.org/2000/svg" xmlns:xlink="http://www.w3.org/1999/xlink" x="0px" y="0px"
	 viewBox="0 0 129.7 138.9" style="enable-background:new 0 0 129.7 138.9;" xml:space="preserve">
<style type="text/css">
	.st0{fill:#5E12A0;}
	.st1{fill:url(#XMLID_35_);}
	.st2{fill:url(#XMLID_36_);}
	.st3{opacity:0.6;fill:#A98698;enable-background:new    ;}
	.st4{opacity:0.6;fill:url(#XMLID_185_);enable-background:new    ;}
	.st5{opacity:0.6;fill:url(#XMLID_186_);enable-background:new    ;}
	.st6{fill:url(#XMLID_187_);}
	.st7{opacity:0.6;}
	.st8{opacity:0.6;fill:url(#XMLID_188_);enable-background:new    ;}
	.st9{opacity:0.7;}
	.st10{fill:url(#XMLID_189_);}
	.st11{fill:url(#XMLID_190_);}
	.st12{fill:#FFFFFF;}
	.st13{fill:url(#XMLID_191_);}
	.st14{opacity:0.2;fill:#FFFFFF;enable-background:new    ;}
	.st15{opacity:0.4;}
	.st16{opacity:0.6;fill:url(#XMLID_192_);enable-background:new    ;}
	.st17{opacity:0.3;fill:#FFFFFF;enable-background:new    ;}
	.st18{opacity:0.6;fill:url(#XMLID_193_);enable-background:new    ;}
	.st19{opacity:0.6;fill:url(#XMLID_194_);enable-background:new    ;}
	.st20{display:none;}
	.st21{display:inline;opacity:0.2;fill:#FFFFFF;enable-background:new    ;}
	.st22{display:inline;opacity:0.4;}
	.st23{opacity:0.6;fill:url(#XMLID_195_);enable-background:new    ;}
	.st24{display:inline;opacity:0.3;fill:#FFFFFF;enable-background:new    ;}
	.st25{opacity:0.6;fill:url(#XMLID_196_);enable-background:new    ;}
	.st26{opacity:0.6;fill:url(#XMLID_197_);enable-background:new    ;}
</style>
<g id="XMLID_2_">
	<g id="XMLID_3_">
		<g id="XMLID_66_">
			<g id="XMLID_67_">
				<path id="XMLID_68_" class="st0" d="M127.6,25.6c-1.4-5.3-5.9-10.6-14-16.5c-6.5-4.7-13.4-7.4-18.9-7.4c-1.1,0-2.1,0.1-3.1,0.3
					c-2.5,0.5-4.7,2.3-6.1,5c-1.7,3.2-2.1,7.5-1,10.1c0.4,0.8,0.9,1.8,1.5,2.7c-5.3,3.2-8.3,4.1-8.7,4.2
					c13.8,4.6,25.3,14.2,32.5,26.7l0.1-1.2c0.3-3.3,1.3-7.1,2.7-11c1.4,0.4,2.8,0.6,4.2,0.6l0,0c3.7,0,6.9-1.5,8.9-4.2
					C127.7,32.2,128.5,28.6,127.6,25.6z"/>
			</g>
		</g>
		<g id="XMLID_62_">
			<g id="XMLID_64_">
				
					<radialGradient id="XMLID_35_" cx="122.976" cy="80.6785" r="44.6944" gradientTransform="matrix(1 0 0 -1 0 100.7784)" gradientUnits="userSpaceOnUse">
					<stop  offset="0" style="stop-color:#FFEAFF;stop-opacity:0.6"/>
					<stop  offset="0.6807" style="stop-color:#A087C9"/>
					<stop  offset="1" style="stop-color:#10002F"/>
				</radialGradient>
				<path id="XMLID_65_" class="st1" d="M113.2,35.6c9.1,2.5,12.8-4.5,11.6-9.2c-1.3-4.7-5.5-9.5-12.9-14.9S97,3.9,92.2,4.9
					s-6.2,8.3-5,11.1c0.5,1.1,1.6,2.7,3.1,4.5c-1.9,1.3-3.7,2.3-5.2,3.2c9.2,4.1,17.2,10.5,23.2,18.5c0.7-2.7,1.7-5.1,2.6-7.2
					C111.6,35.1,112.4,35.3,113.2,35.6z"/>
			</g>
			
				<radialGradient id="XMLID_36_" cx="98.1105" cy="61.6169" r="109.3511" gradientTransform="matrix(1 0 0 -1 0 100.7784)" gradientUnits="userSpaceOnUse">
				<stop  offset="0" style="stop-color:#FFEAFF;stop-opacity:0.6"/>
				<stop  offset="0.6807" style="stop-color:#A087C9"/>
				<stop  offset="1" style="stop-color:#10002F"/>
			</radialGradient>
			<circle id="XMLID_63_" class="st2" cx="61.1" cy="77.7" r="55.9"/>
		</g>
		<path id="XMLID_61_" class="st3" d="M120.2,21.8c-7.6-8-14-10.1-21.7-11.8c-6-1.4-4.4-4.8,2.9-4.1c-3.5-1.2-6.8-1.5-9.2-1
			c-4.8,1-6.2,8.3-5,11.1c0.5,1.1,1.6,2.7,3.1,4.5c-2.7,1.8-5,3.1-6.9,4.1c0.9,0.4,2,0.9,3.3,1.6c3.4,1.8,7.1,4.8,7.1,4.8
			c-5.6-4.8-4.4-7,3.3-12.4c2.4-1.7,6.8-1.5,10.9,0.6c4.1,2.1,8.9,7.4,8.9,7.4l-4.6,8.8c0.3,0.1,0.6,0.2,0.9,0.3
			c2.9,0.8,5.2,0.6,7-0.1C122.3,34.3,127.8,29.9,120.2,21.8z"/>
		<g id="XMLID_56_">
			<path id="XMLID_57_" class="st0" d="M98.4,14.8c2,0.8,4.6,2.2,7.8,4.3c3.8,2.5,7.1,5.3,9.2,7.5c-3.5,4.6-5.8,10.9-7.2,15.3
				c0.7,1,1.5,2,2.2,3c0.7-2.5,1.9-6.2,3.5-9.9c0.4,0.1,0.9,0.1,1.4,0.1c1.2,0,2.6-0.2,3.7-1.1c0.8-0.6,1.7-1.7,1.6-3.7
				c0-1.9-1.5-4.3-4.6-7.2c-2.2-2.1-5.2-4.4-8.2-6.5c-8.6-5.7-14.6-7.3-17.3-4.6c-1.8,1.8-1.6,4-1,5.6c-3.2,2.1-5.9,3.6-7.7,4.6
				c1.2,0.4,2.3,0.9,3.5,1.4C88.5,21.9,93.1,19,98.4,14.8z M117.3,29.1c0.3,0.5,0.4,1,0.4,1.3c0,0.9-0.3,1.2-0.5,1.4
				c-0.4,0.3-1.2,0.5-1.9,0.5C115.9,31.1,116.6,30.1,117.3,29.1z M92.6,14.2c0.3-0.3,1.1-0.5,2.4-0.3c-1,0.8-2,1.5-3,2.2
				C91.9,15.4,92,14.7,92.6,14.2z"/>
		</g>
		<g id="XMLID_52_">
			<path id="XMLID_53_" class="st0" d="M61.1,18.5C28.4,18.5,1.9,45,1.9,77.7s26.5,59.2,59.2,59.2s59.2-26.5,59.2-59.2
				S93.7,18.5,61.1,18.5z M61.1,133.6c-30.9,0-55.9-25-55.9-55.9s25-55.9,55.9-55.9s55.9,25,55.9,55.9S91.9,133.6,61.1,133.6z"/>
		</g>
		
			<linearGradient id="XMLID_185_" gradientUnits="userSpaceOnUse" x1="-1397.5299" y1="-1163.0492" x2="-1285.7112" y2="-1163.0492" gradientTransform="matrix(0.16 -0.9871 -0.9871 -0.16 -872.2866 -1432.7015)">
			<stop  offset="0" style="stop-color:#81FFFF"/>
			<stop  offset="0.6202" style="stop-color:#FFFFFF;stop-opacity:0"/>
		</linearGradient>
		<circle id="XMLID_51_" class="st4" cx="61.1" cy="77.7" r="55.9"/>
		<g id="XMLID_49_">
			<path id="XMLID_50_" class="st3" d="M60.7,126.8c-30.5-4.9-51.2-33.6-46.2-64.1c2.2-13.5,9-25,18.6-33.3
				c-14,8.1-24.4,22.2-27.2,39.4C1,99.3,21.7,128,52.1,132.9c17,2.8,33.4-2.5,45.5-12.9C86.9,126.2,73.9,128.9,60.7,126.8z"/>
		</g>
		
			<linearGradient id="XMLID_186_" gradientUnits="userSpaceOnUse" x1="100.4609" y1="61.0791" x2="54.2367" y2="18.6672" gradientTransform="matrix(1 0 0 -1 0 100.7784)">
			<stop  offset="0.2888" style="stop-color:#FFFFFF"/>
			<stop  offset="0.7796" style="stop-color:#FFFFFF;stop-opacity:0"/>
		</linearGradient>
		<path id="XMLID_48_" class="st5" d="M70,22.6c-14.1-2.3-27.8,0.9-39,8c-0.2,0.2-0.4,0.4-0.4,0.4c4.3-2.6,10.6-4.9,10.6-4.9
			C25,35.5,20,46.2,20,46.2C26.3,34,44.8,25.4,59.3,24.8c14.5-0.6,24,3.7,35.6,13c11.6,9.4,18.6,28.6,17.9,43.8
			c-0.6,15.2-8.6,27.5-8.6,27.5c5.5-7.1,8.8-12.3,10.9-17.6c0.4-1.6,0.8-3.2,1-4.9C121.1,56.2,100.5,27.5,70,22.6z"/>
		<g id="XMLID_41_">
			
				<linearGradient id="XMLID_187_" gradientUnits="userSpaceOnUse" x1="7.9" y1="-2.9716" x2="114.2" y2="-2.9716" gradientTransform="matrix(1 0 0 -1 0 100.7784)">
				<stop  offset="0" style="stop-color:#0002E9"/>
				<stop  offset="0.9952" style="stop-color:#FF00C7"/>
			</linearGradient>
			<path id="XMLID_47_" class="st6" d="M114.2,77.2c0,29.3-23.8,53.1-53.1,53.1S7.9,106.5,7.9,77.2H114.2z"/>
			<g id="XMLID_45_" class="st7">
				
					<linearGradient id="XMLID_188_" gradientUnits="userSpaceOnUse" x1="119.2316" y1="18.8884" x2="61.4115" y2="-35.7548" gradientTransform="matrix(1 0 0 -1 0 100.7784)">
					<stop  offset="0.2888" style="stop-color:#FFFFFF"/>
					<stop  offset="0.7796" style="stop-color:#FFFFFF;stop-opacity:0"/>
				</linearGradient>
				<path id="XMLID_46_" class="st8" d="M110,77.2c0,28.6-22.6,52-51,53.1c0.7,0,1.4,0,2.1,0c29.3,0,53.1-23.8,53.1-53.1H110z"/>
			</g>
			<g id="XMLID_43_" class="st9">
				
					<linearGradient id="XMLID_189_" gradientUnits="userSpaceOnUse" x1="7.9" y1="-2.9716" x2="64.7" y2="-2.9716" gradientTransform="matrix(1 0 0 -1 0 100.7784)">
					<stop  offset="0" style="stop-color:#000292"/>
					<stop  offset="0.9952" style="stop-color:#7D00C7"/>
				</linearGradient>
				<path id="XMLID_44_" class="st10" d="M15.4,77.2H7.9c0,29.3,23.8,53.1,53.1,53.1c1.3,0,2.5,0,3.7-0.1
					C37.2,128.2,15.4,105.2,15.4,77.2z"/>
			</g>
			
				<linearGradient id="XMLID_190_" gradientUnits="userSpaceOnUse" x1="8.0163" y1="18.6995" x2="114.1029" y2="18.6995" gradientTransform="matrix(1 0 0 -1 0 100.7784)">
				<stop  offset="0" style="stop-color:#000292"/>
				<stop  offset="0.9952" style="stop-color:#BE00C7"/>
			</linearGradient>
			<path id="XMLID_42_" class="st11" d="M114.1,77.7c0-6.1-10.6-9.6-24.7-10.8c-10.2-0.8-20.5,0.2-32.3,3.8
				c-10.2,3-19.4,2.5-26.1,1.7c-14.9-1.7-23.1-1.9-23.1,5.3c0,10.4,21.2,23.4,53,18.9c16.1-2.3,24.4-7,33.9-10.2
				C105.1,83,114.1,83.1,114.1,77.7z"/>
		</g>
		<circle id="XMLID_40_" class="st12" cx="78.5" cy="43.5" r="9"/>
		<circle id="XMLID_39_" class="st12" cx="93.2" cy="55.4" r="3.8"/>
		<g id="XMLID_37_" class="st7">
			
				<linearGradient id="XMLID_191_" gradientUnits="userSpaceOnUse" x1="112.3861" y1="75.5507" x2="104.7615" y2="63.1607" gradientTransform="matrix(1 0 0 -1 0 100.7784)">
				<stop  offset="0.2888" style="stop-color:#FFFFFF"/>
				<stop  offset="0.7796" style="stop-color:#FFFFFF;stop-opacity:0"/>
			</linearGradient>
			<path id="XMLID_38_" class="st13" d="M106.8,36.3c-0.1,0-0.2,0-0.2,0c-0.6-0.1-1-0.7-0.9-1.4c0.9-4.6,4.7-9,4.9-9.2
				c0.4-0.5,1.2-0.5,1.6-0.1c0.5,0.4,0.5,1.2,0.1,1.6c-0.1,0.1-3.6,4.2-4.4,8.2C107.8,36,107.3,36.3,106.8,36.3z"/>
		</g>
		<g id="XMLID_29_">
			<circle id="XMLID_33_" class="st14" cx="57.4" cy="116.6" r="2.8"/>
			<g id="XMLID_31_" class="st15">
				
					<linearGradient id="XMLID_192_" gradientUnits="userSpaceOnUse" x1="54.575" y1="-15.8431" x2="58.8059" y2="-15.8431" gradientTransform="matrix(1 0 0 -1 0 100.7784)">
					<stop  offset="0.2888" style="stop-color:#FFFFFF"/>
					<stop  offset="0.7796" style="stop-color:#FFFFFF;stop-opacity:0"/>
				</linearGradient>
				<path id="XMLID_32_" class="st16" d="M55.8,118.4c-1.1-1.1-1.1-2.9,0-4c0.2-0.2,0.4-0.3,0.6-0.5c-0.4,0.1-0.7,0.3-1,0.6
					c-1.1,1.1-1.1,2.9,0,4c0.9,0.9,2.3,1.1,3.4,0.5C57.8,119.4,56.6,119.2,55.8,118.4z"/>
			</g>
			<circle id="XMLID_30_" class="st17" cx="58.4" cy="115.2" r="0.6"/>
		</g>
		<g id="XMLID_24_">
			<circle id="XMLID_28_" class="st14" cx="72" cy="115.2" r="2.8"/>
			<g id="XMLID_26_" class="st15">
				
					<linearGradient id="XMLID_193_" gradientUnits="userSpaceOnUse" x1="69.162" y1="-14.4431" x2="73.3929" y2="-14.4431" gradientTransform="matrix(1 0 0 -1 0 100.7784)">
					<stop  offset="0.2888" style="stop-color:#FFFFFF"/>
					<stop  offset="0.7796" style="stop-color:#FFFFFF;stop-opacity:0"/>
				</linearGradient>
				<path id="XMLID_27_" class="st18" d="M70.4,117c-1.1-1.1-1.1-2.9,0-4c0.2-0.2,0.4-0.3,0.6-0.5c-0.4,0.1-0.7,0.3-1,0.6
					c-1.1,1.1-1.1,2.9,0,4c0.9,0.9,2.3,1.1,3.4,0.5C72.4,118,71.2,117.8,70.4,117z"/>
			</g>
			<circle id="XMLID_25_" class="st17" cx="73" cy="113.8" r="0.6"/>
		</g>
		<g id="XMLID_19_">
			<circle id="XMLID_23_" class="st14" cx="64.8" cy="122.4" r="2.1"/>
			<g id="XMLID_21_" class="st15">
				
					<linearGradient id="XMLID_194_" gradientUnits="userSpaceOnUse" x1="62.6869" y1="-21.6779" x2="65.8632" y2="-21.6779" gradientTransform="matrix(1 0 0 -1 0 100.7784)">
					<stop  offset="0.2888" style="stop-color:#FFFFFF"/>
					<stop  offset="0.7796" style="stop-color:#FFFFFF;stop-opacity:0"/>
				</linearGradient>
				<path id="XMLID_22_" class="st19" d="M63.6,123.7c-0.8-0.8-0.8-2.2,0-3c0.1-0.1,0.3-0.2,0.4-0.3c-0.3,0.1-0.5,0.3-0.7,0.5
					c-0.8,0.8-0.8,2.2,0,3c0.7,0.7,1.7,0.8,2.6,0.3C65.1,124.5,64.2,124.3,63.6,123.7z"/>
			</g>
			<circle id="XMLID_20_" class="st17" cx="65.5" cy="121.3" r="0.4"/>
		</g>
		<g id="XMLID_14_" class="st20">
			<circle id="XMLID_18_" class="st21" cx="77.7" cy="120.9" r="2.1"/>
			<g id="XMLID_16_" class="st22">
				
					<linearGradient id="XMLID_195_" gradientUnits="userSpaceOnUse" x1="75.5437" y1="-20.1779" x2="78.72" y2="-20.1779" gradientTransform="matrix(1 0 0 -1 0 100.7784)">
					<stop  offset="0.2888" style="stop-color:#FFFFFF"/>
					<stop  offset="0.7796" style="stop-color:#FFFFFF;stop-opacity:0"/>
				</linearGradient>
				<path id="XMLID_17_" class="st23" d="M76.5,122.2c-0.8-0.8-0.8-2.2,0-3c0.1-0.1,0.3-0.2,0.4-0.3c-0.3,0.1-0.5,0.3-0.7,0.5
					c-0.8,0.8-0.8,2.2,0,3c0.7,0.7,1.7,0.8,2.6,0.3C78,123,77.1,122.8,76.5,122.2z"/>
			</g>
			<circle id="XMLID_15_" class="st24" cx="78.4" cy="119.8" r="0.4"/>
		</g>
		<g id="XMLID_9_">
			<circle id="XMLID_13_" class="st14" cx="45.5" cy="113.8" r="4.6"/>
			<g id="XMLID_11_" class="st15">
				
					<linearGradient id="XMLID_196_" gradientUnits="userSpaceOnUse" x1="40.9041" y1="-13.1521" x2="47.8135" y2="-13.1521" gradientTransform="matrix(1 0 0 -1 0 100.7784)">
					<stop  offset="0.2888" style="stop-color:#FFFFFF"/>
					<stop  offset="0.7796" style="stop-color:#FFFFFF;stop-opacity:0"/>
				</linearGradient>
				<path id="XMLID_12_" class="st25" d="M42.9,116.7c-1.8-1.8-1.8-4.7,0-6.5c0.3-0.3,0.6-0.5,1-0.7c-0.6,0.2-1.1,0.6-1.6,1
					c-1.8,1.8-1.8,4.7,0,6.5c1.5,1.5,3.8,1.8,5.6,0.7C46.2,118.4,44.2,118.1,42.9,116.7z"/>
			</g>
			<circle id="XMLID_10_" class="st17" cx="47.1" cy="111.4" r="1"/>
		</g>
		<g id="XMLID_4_">
			<circle id="XMLID_8_" class="st14" cx="86.6" cy="102.5" r="4.6"/>
			<g id="XMLID_6_" class="st15">
				
					<linearGradient id="XMLID_197_" gradientUnits="userSpaceOnUse" x1="81.9424" y1="-1.8521" x2="88.8518" y2="-1.8521" gradientTransform="matrix(1 0 0 -1 0 100.7784)">
					<stop  offset="0.2888" style="stop-color:#FFFFFF"/>
					<stop  offset="0.7796" style="stop-color:#FFFFFF;stop-opacity:0"/>
				</linearGradient>
				<path id="XMLID_7_" class="st26" d="M83.9,105.4c-1.8-1.8-1.8-4.7,0-6.5c0.3-0.3,0.6-0.5,1-0.7c-0.6,0.2-1.1,0.6-1.6,1
					c-1.8,1.8-1.8,4.7,0,6.5c1.5,1.5,3.8,1.8,5.6,0.7C87.2,107.1,85.3,106.8,83.9,105.4z"/>
			</g>
			<circle id="XMLID_5_" class="st17" cx="88.2" cy="100.1" r="1"/>
		</g>
	</g>
</g>
</svg>
