<?xml version="1.0" encoding="UTF-8" standalone="no"?>
<!DOCTYPE svg PUBLIC "-//W3C//DTD SVG 1.1//EN" "http://www.w3.org/Graphics/SVG/1.1/DTD/svg11.dtd">
<svg width="100%" height="100%" viewBox="0 0 130 139" version="1.1" xmlns="http://www.w3.org/2000/svg" xmlns:xlink="http://www.w3.org/1999/xlink" xml:space="preserve" xmlns:serif="http://www.serif.com/" style="fill-rule:evenodd;clip-rule:evenodd;stroke-linejoin:round;stroke-miterlimit:2;">
    <path d="M127.6,25.6C126.2,20.3 121.7,15 113.6,9.1C107.1,4.4 100.2,1.7 94.7,1.7C93.6,1.7 92.6,1.8 91.6,2C89.1,2.5 86.9,4.3 85.5,7C83.8,10.2 83.4,14.5 84.5,17.1C84.9,17.9 85.4,18.9 86,19.8C80.7,23 77.7,23.9 77.3,24C91.1,28.6 102.6,38.2 109.8,50.7L109.9,49.5C110.2,46.2 111.2,42.4 112.6,38.5C114,38.9 115.4,39.1 116.8,39.1C120.5,39.1 123.7,37.6 125.7,34.9C127.7,32.2 128.5,28.6 127.6,25.6Z" style="fill:rgb(94,18,160);fill-rule:nonzero;"/>
    <path d="M113.2,35.6C122.3,38.1 126,31.1 124.8,26.4C123.5,21.7 119.3,16.9 111.9,11.5C104.5,6.1 97,3.9 92.2,4.9C87.4,5.9 86,13.2 87.2,16C87.7,17.1 88.8,18.7 90.3,20.5C88.4,21.8 86.6,22.8 85.1,23.7C94.3,27.8 102.3,34.2 108.3,42.2C109,39.5 110,37.1 110.9,35C111.6,35.1 112.4,35.3 113.2,35.6Z" style="fill:url(#_Radial1);fill-rule:nonzero;"/>
    <path d="M61.1,133.6C91.973,133.6 117,108.573 117,77.7C117,46.827 91.973,21.8 61.1,21.8C30.227,21.8 5.2,46.827 5.2,77.7C5.2,108.573 30.227,133.6 61.1,133.6Z" style="fill:url(#_Radial2);fill-rule:nonzero;"/>
    <path d="M120.2,21.8C112.6,13.8 106.2,11.7 98.5,10C92.5,8.6 94.1,5.2 101.4,5.9C97.9,4.7 94.6,4.4 92.2,4.9C87.4,5.9 86,13.2 87.2,16C87.7,17.1 88.8,18.7 90.3,20.5C87.6,22.3 85.3,23.6 83.4,24.6C84.3,25 85.4,25.5 86.7,26.2C90.1,28 93.8,31 93.8,31C88.2,26.2 89.4,24 97.1,18.6C99.5,16.9 103.9,17.1 108,19.2C112.1,21.3 116.9,26.6 116.9,26.6L112.3,35.4C112.6,35.5 112.9,35.6 113.2,35.7C116.1,36.5 118.4,36.3 120.2,35.6C122.3,34.3 127.8,29.9 120.2,21.8Z" style="fill:rgb(169,134,152);fill-opacity:0.6;fill-rule:nonzero;"/>
    <path d="M98.4,14.8C100.4,15.6 103,17 106.2,19.1C110,21.6 113.3,24.4 115.4,26.6C111.9,31.2 109.6,37.5 108.2,41.9C108.9,42.9 109.7,43.9 110.4,44.9C111.1,42.4 112.3,38.7 113.9,35C114.3,35.1 114.8,35.1 115.3,35.1C116.5,35.1 117.9,34.9 119,34C119.8,33.4 120.7,32.3 120.6,30.3C120.6,28.4 119.1,26 116,23.1C113.8,21 110.8,18.7 107.8,16.6C99.2,10.9 93.2,9.3 90.5,12C88.7,13.8 88.9,16 89.5,17.6C86.3,19.7 83.6,21.2 81.8,22.2C83,22.6 84.1,23.1 85.3,23.6C88.5,21.9 93.1,19 98.4,14.8ZM117.3,29.1C117.6,29.6 117.7,30.1 117.7,30.4C117.7,31.3 117.4,31.6 117.2,31.8C116.8,32.1 116,32.3 115.3,32.3C115.9,31.1 116.6,30.1 117.3,29.1ZM92.6,14.2C92.9,13.9 93.7,13.7 95,13.9C94,14.7 93,15.4 92,16.1C91.9,15.4 92,14.7 92.6,14.2Z" style="fill:rgb(94,18,160);fill-rule:nonzero;"/>
    <path d="M61.1,18.5C28.4,18.5 1.9,45 1.9,77.7C1.9,110.4 28.4,136.9 61.1,136.9C93.8,136.9 120.3,110.4 120.3,77.7C120.3,45 93.7,18.5 61.1,18.5ZM61.1,133.6C30.2,133.6 5.2,108.6 5.2,77.7C5.2,46.8 30.2,21.8 61.1,21.8C92,21.8 117,46.8 117,77.7C117,108.6 91.9,133.6 61.1,133.6Z" style="fill:rgb(94,18,160);fill-rule:nonzero;"/>
    <path d="M61.1,133.6C91.973,133.6 117,108.573 117,77.7C117,46.827 91.973,21.8 61.1,21.8C30.227,21.8 5.2,46.827 5.2,77.7C5.2,108.573 30.227,133.6 61.1,133.6Z" style="fill:url(#_Linear3);fill-rule:nonzero;"/>
    <path d="M60.7,126.8C30.2,121.9 9.5,93.2 14.5,62.7C16.7,49.2 23.5,37.7 33.1,29.4C19.1,37.5 8.7,51.6 5.9,68.8C1,99.3 21.7,128 52.1,132.9C69.1,135.7 85.5,130.4 97.6,120C86.9,126.2 73.9,128.9 60.7,126.8Z" style="fill:rgb(169,134,152);fill-opacity:0.6;fill-rule:nonzero;"/>
    <path d="M70,22.6C55.9,20.3 42.2,23.5 31,30.6C30.8,30.8 30.6,31 30.6,31C34.9,28.4 41.2,26.1 41.2,26.1C25,35.5 20,46.2 20,46.2C26.3,34 44.8,25.4 59.3,24.8C73.8,24.2 83.3,28.5 94.9,37.8C106.5,47.2 113.5,66.4 112.8,81.6C112.2,96.8 104.2,109.1 104.2,109.1C109.7,102 113,96.8 115.1,91.5C115.5,89.9 115.9,88.3 116.1,86.6C121.1,56.2 100.5,27.5 70,22.6Z" style="fill:url(#_Linear4);fill-rule:nonzero;"/>
    <path d="M114.2,77.2C114.2,106.5 90.4,130.3 61.1,130.3C31.8,130.3 7.9,106.5 7.9,77.2L114.2,77.2Z" style="fill:url(#_Linear5);fill-rule:nonzero;"/>
    <path d="M110,77.2C110,105.8 87.4,129.2 59,130.3L61.1,130.3C90.4,130.3 114.2,106.5 114.2,77.2L110,77.2Z" style="fill:url(#_Linear6);fill-rule:nonzero;"/>
    <path d="M15.4,77.2L7.9,77.2C7.9,106.5 31.7,130.3 61,130.3C62.3,130.3 63.5,130.3 64.7,130.2C37.2,128.2 15.4,105.2 15.4,77.2Z" style="fill:url(#_Linear7);fill-rule:nonzero;"/>
    <path d="M114.1,77.7C114.1,71.6 103.5,68.1 89.4,66.9C79.2,66.1 68.9,67.1 57.1,70.7C46.9,73.7 37.7,73.2 31,72.4C16.1,70.7 7.9,70.5 7.9,77.7C7.9,88.1 29.1,101.1 60.9,96.6C77,94.3 85.3,89.6 94.8,86.4C105.1,83 114.1,83.1 114.1,77.7Z" style="fill:url(#_Linear8);fill-rule:nonzero;"/>
    <path d="M78.5,52.5C83.471,52.5 87.5,48.471 87.5,43.5C87.5,38.529 83.471,34.5 78.5,34.5C73.529,34.5 69.5,38.529 69.5,43.5C69.5,48.471 73.529,52.5 78.5,52.5Z" style="fill:white;fill-rule:nonzero;"/>
    <path d="M93.2,59.2C95.299,59.2 97,57.499 97,55.4C97,53.301 95.299,51.6 93.2,51.6C91.101,51.6 89.4,53.301 89.4,55.4C89.4,57.499 91.101,59.2 93.2,59.2Z" style="fill:white;fill-rule:nonzero;"/>
    <path d="M106.8,36.3L106.6,36.3C106,36.2 105.6,35.6 105.7,34.9C106.6,30.3 110.4,25.9 110.6,25.7C111,25.2 111.8,25.2 112.2,25.6C112.7,26 112.7,26.8 112.3,27.2C112.2,27.3 108.7,31.4 107.9,35.4C107.8,36 107.3,36.3 106.8,36.3Z" style="fill:url(#_Linear9);fill-rule:nonzero;"/>
    <path d="M94.7,1.7C100.3,1.7 107.2,4.4 113.6,9.1C121.7,15 126.2,20.2 127.6,25.6C128.4,28.7 127.7,32.2 125.7,34.8C123.6,37.5 120.5,39 116.8,39C115.5,39 114.1,38.8 112.6,38.4C111.7,40.7 111,43 110.5,45.2C116.6,54.5 120.2,65.7 120.2,77.7C120.2,110.4 93.7,136.9 61,136.9C28.3,136.9 1.9,110.4 1.9,77.7C1.9,45 28.4,18.5 61.1,18.5C68.3,18.5 75.2,19.8 81.6,22.2C82.8,21.6 84.3,20.8 86,19.8C85.4,18.9 84.8,18 84.5,17.1C83.4,14.4 83.8,10.2 85.5,7C86.9,4.4 89,2.6 91.6,2C92.5,1.8 93.6,1.7 94.7,1.7ZM94.7,0C93.5,0 92.3,0.1 91.2,0.4C88.2,1.1 85.6,3.1 83.9,6.3C82,10 81.5,14.8 82.8,17.9C83,18.3 83.2,18.8 83.5,19.3C82.8,19.7 82.1,20.1 81.4,20.4C74.8,18.1 68,16.9 61,16.9C52.8,16.9 44.8,18.5 37.3,21.7C30,24.8 23.5,29.2 17.9,34.8C12.3,40.4 7.9,46.9 4.8,54.2C1.6,61.7 0,69.7 0,77.9C0,86.1 1.6,94.1 4.8,101.6C7.9,108.9 12.3,115.4 17.9,121C23.5,126.6 30,131 37.3,134.1C44.8,137.3 52.8,138.9 61,138.9C69.2,138.9 77.2,137.3 84.7,134.1C92,131 98.5,126.6 104.1,121C109.7,115.4 114.1,108.9 117.2,101.6C120.4,94.1 122,86.1 122,77.9C122,66.2 118.7,54.9 112.4,45.1C112.7,43.6 113.2,42.1 113.7,40.6C114.7,40.8 115.8,40.9 116.8,40.9C121,40.9 124.7,39.2 127.1,36C129.4,33 130.3,28.8 129.3,25.3C127.7,19.5 123.1,14 114.6,7.9C107.9,2.8 100.6,0 94.7,0Z" style="fill:white;fill-rule:nonzero;"/>
    <path d="M57.4,119.4C58.946,119.4 60.2,118.146 60.2,116.6C60.2,115.054 58.946,113.8 57.4,113.8C55.854,113.8 54.6,115.054 54.6,116.6C54.6,118.146 55.854,119.4 57.4,119.4Z" style="fill:white;fill-opacity:0.2;fill-rule:nonzero;"/>
    <path d="M55.8,118.4C54.7,117.3 54.7,115.5 55.8,114.4C56,114.2 56.2,114.1 56.4,113.9C56,114 55.7,114.2 55.4,114.5C54.3,115.6 54.3,117.4 55.4,118.5C56.3,119.4 57.7,119.6 58.8,119C57.8,119.4 56.6,119.2 55.8,118.4Z" style="fill:url(#_Linear10);fill-rule:nonzero;"/>
    <path d="M58.4,115.8C58.731,115.8 59,115.531 59,115.2C59,114.869 58.731,114.6 58.4,114.6C58.069,114.6 57.8,114.869 57.8,115.2C57.8,115.531 58.069,115.8 58.4,115.8Z" style="fill:white;fill-opacity:0.3;fill-rule:nonzero;"/>
    <path d="M72,118C73.546,118 74.8,116.746 74.8,115.2C74.8,113.654 73.546,112.4 72,112.4C70.454,112.4 69.2,113.654 69.2,115.2C69.2,116.746 70.454,118 72,118Z" style="fill:white;fill-opacity:0.2;fill-rule:nonzero;"/>
    <path d="M70.4,117C69.3,115.9 69.3,114.1 70.4,113C70.6,112.8 70.8,112.7 71,112.5C70.6,112.6 70.3,112.8 70,113.1C68.9,114.2 68.9,116 70,117.1C70.9,118 72.3,118.2 73.4,117.6C72.4,118 71.2,117.8 70.4,117Z" style="fill:url(#_Linear11);fill-rule:nonzero;"/>
    <path d="M73,114.4C73.331,114.4 73.6,114.131 73.6,113.8C73.6,113.469 73.331,113.2 73,113.2C72.669,113.2 72.4,113.469 72.4,113.8C72.4,114.131 72.669,114.4 73,114.4Z" style="fill:white;fill-opacity:0.3;fill-rule:nonzero;"/>
    <path d="M64.8,124.5C65.96,124.5 66.9,123.56 66.9,122.4C66.9,121.24 65.96,120.3 64.8,120.3C63.64,120.3 62.7,121.24 62.7,122.4C62.7,123.56 63.64,124.5 64.8,124.5Z" style="fill:white;fill-opacity:0.2;fill-rule:nonzero;"/>
    <path d="M63.6,123.7C62.8,122.9 62.8,121.5 63.6,120.7C63.7,120.6 63.9,120.5 64,120.4C63.7,120.5 63.5,120.7 63.3,120.9C62.5,121.7 62.5,123.1 63.3,123.9C64,124.6 65,124.7 65.9,124.2C65.1,124.5 64.2,124.3 63.6,123.7Z" style="fill:url(#_Linear12);fill-rule:nonzero;"/>
    <path d="M65.5,121.7C65.721,121.7 65.9,121.521 65.9,121.3C65.9,121.079 65.721,120.9 65.5,120.9C65.279,120.9 65.1,121.079 65.1,121.3C65.1,121.521 65.279,121.7 65.5,121.7Z" style="fill:white;fill-opacity:0.3;fill-rule:nonzero;"/>
    <path d="M77.7,123C78.86,123 79.8,122.06 79.8,120.9C79.8,119.74 78.86,118.8 77.7,118.8C76.54,118.8 75.6,119.74 75.6,120.9C75.6,122.06 76.54,123 77.7,123Z" style="fill:white;fill-opacity:0.2;fill-rule:nonzero;"/>
    <path d="M76.5,122.2C75.7,121.4 75.7,120 76.5,119.2C76.6,119.1 76.8,119 76.9,118.9C76.6,119 76.4,119.2 76.2,119.4C75.4,120.2 75.4,121.6 76.2,122.4C76.9,123.1 77.9,123.2 78.8,122.7C78,123 77.1,122.8 76.5,122.2Z" style="fill:url(#_Linear13);fill-rule:nonzero;"/>
    <path d="M78.4,120.2C78.621,120.2 78.8,120.021 78.8,119.8C78.8,119.579 78.621,119.4 78.4,119.4C78.179,119.4 78,119.579 78,119.8C78,120.021 78.179,120.2 78.4,120.2Z" style="fill:white;fill-opacity:0.3;fill-rule:nonzero;"/>
    <path d="M45.5,118.4C48.041,118.4 50.1,116.341 50.1,113.8C50.1,111.26 48.041,109.2 45.5,109.2C42.96,109.2 40.9,111.26 40.9,113.8C40.9,116.341 42.96,118.4 45.5,118.4Z" style="fill:white;fill-opacity:0.2;fill-rule:nonzero;"/>
    <path d="M42.9,116.7C41.1,114.9 41.1,112 42.9,110.2C43.2,109.9 43.5,109.7 43.9,109.5C43.3,109.7 42.8,110.1 42.3,110.5C40.5,112.3 40.5,115.2 42.3,117C43.8,118.5 46.1,118.8 47.9,117.7C46.2,118.4 44.2,118.1 42.9,116.7Z" style="fill:url(#_Linear14);fill-rule:nonzero;"/>
    <path d="M47.1,112.4C47.652,112.4 48.1,111.952 48.1,111.4C48.1,110.848 47.652,110.4 47.1,110.4C46.548,110.4 46.1,110.848 46.1,111.4C46.1,111.952 46.548,112.4 47.1,112.4Z" style="fill:white;fill-opacity:0.3;fill-rule:nonzero;"/>
    <path d="M86.6,107.1C89.141,107.1 91.2,105.041 91.2,102.5C91.2,99.96 89.141,97.9 86.6,97.9C84.06,97.9 82,99.96 82,102.5C82,105.041 84.06,107.1 86.6,107.1Z" style="fill:white;fill-opacity:0.2;fill-rule:nonzero;"/>
    <path d="M83.9,105.4C82.1,103.6 82.1,100.7 83.9,98.9C84.2,98.6 84.5,98.4 84.9,98.2C84.3,98.4 83.8,98.8 83.3,99.2C81.5,101 81.5,103.9 83.3,105.7C84.8,107.2 87.1,107.5 88.9,106.4C87.2,107.1 85.3,106.8 83.9,105.4Z" style="fill:url(#_Linear15);fill-rule:nonzero;"/>
    <path d="M88.2,101.1C88.752,101.1 89.2,100.652 89.2,100.1C89.2,99.548 88.752,99.1 88.2,99.1C87.648,99.1 87.2,99.548 87.2,100.1C87.2,100.652 87.648,101.1 88.2,101.1Z" style="fill:white;fill-opacity:0.3;fill-rule:nonzero;"/>
    <defs>
        <radialGradient id="_Radial1" cx="0" cy="0" r="1" gradientUnits="userSpaceOnUse" gradientTransform="matrix(44.6944,0,0,44.6944,122.976,20.0999)"><stop offset="0" style="stop-color:rgb(255,234,255);stop-opacity:0.6"/><stop offset="0.68" style="stop-color:rgb(160,135,201);stop-opacity:1"/><stop offset="1" style="stop-color:rgb(16,0,47);stop-opacity:1"/></radialGradient>
        <radialGradient id="_Radial2" cx="0" cy="0" r="1" gradientUnits="userSpaceOnUse" gradientTransform="matrix(109.351,0,0,109.351,98.1105,39.1614)"><stop offset="0" style="stop-color:rgb(255,234,255);stop-opacity:0.6"/><stop offset="0.68" style="stop-color:rgb(160,135,201);stop-opacity:1"/><stop offset="1" style="stop-color:rgb(16,0,47);stop-opacity:1"/></radialGradient>
        <linearGradient id="_Linear3" x1="0" y1="0" x2="1" y2="0" gradientUnits="userSpaceOnUse" gradientTransform="matrix(17.8797,-110.307,110.307,17.8797,52.1332,132.807)"><stop offset="0" style="stop-color:rgb(129,255,255);stop-opacity:0.6"/><stop offset="0.62" style="stop-color:white;stop-opacity:0"/><stop offset="1" style="stop-color:white;stop-opacity:0"/></linearGradient>
        <linearGradient id="_Linear4" x1="0" y1="0" x2="1" y2="0" gradientUnits="userSpaceOnUse" gradientTransform="matrix(-46.224,42.4119,-42.4119,-46.224,100.495,39.7366)"><stop offset="0" style="stop-color:white;stop-opacity:0.6"/><stop offset="0.29" style="stop-color:white;stop-opacity:0.6"/><stop offset="0.78" style="stop-color:white;stop-opacity:0"/><stop offset="1" style="stop-color:white;stop-opacity:0"/></linearGradient>
        <linearGradient id="_Linear5" x1="0" y1="0" x2="1" y2="0" gradientUnits="userSpaceOnUse" gradientTransform="matrix(106.229,0,0,106.229,7.94502,103.719)"><stop offset="0" style="stop-color:rgb(0,2,233);stop-opacity:1"/><stop offset="1" style="stop-color:rgb(255,0,199);stop-opacity:1"/><stop offset="1" style="stop-color:rgb(255,0,199);stop-opacity:1"/></linearGradient>
        <linearGradient id="_Linear6" x1="0" y1="0" x2="1" y2="0" gradientUnits="userSpaceOnUse" gradientTransform="matrix(-57.8203,54.6435,-54.6435,-57.8203,119.203,81.8595)"><stop offset="0" style="stop-color:white;stop-opacity:0.6"/><stop offset="0.29" style="stop-color:white;stop-opacity:0.6"/><stop offset="0.78" style="stop-color:white;stop-opacity:0"/><stop offset="1" style="stop-color:white;stop-opacity:0"/></linearGradient>
        <linearGradient id="_Linear7" x1="0" y1="0" x2="1" y2="0" gradientUnits="userSpaceOnUse" gradientTransform="matrix(56.8321,0,0,56.8321,7.94502,103.719)"><stop offset="0" style="stop-color:rgb(0,2,146);stop-opacity:0.7"/><stop offset="1" style="stop-color:rgb(125,0,199);stop-opacity:0.7"/><stop offset="1" style="stop-color:rgb(125,0,199);stop-opacity:0.7"/></linearGradient>
        <linearGradient id="_Linear8" x1="0" y1="0" x2="1" y2="0" gradientUnits="userSpaceOnUse" gradientTransform="matrix(106.087,0,0,106.087,8.01632,82.1113)"><stop offset="0" style="stop-color:rgb(0,2,146);stop-opacity:1"/><stop offset="1" style="stop-color:rgb(190,0,199);stop-opacity:1"/><stop offset="1" style="stop-color:rgb(190,0,199);stop-opacity:1"/></linearGradient>
        <linearGradient id="_Linear9" x1="0" y1="0" x2="1" y2="0" gradientUnits="userSpaceOnUse" gradientTransform="matrix(-7.624,12.39,-12.39,-7.624,112.362,25.213)"><stop offset="0" style="stop-color:white;stop-opacity:0.6"/><stop offset="0.29" style="stop-color:white;stop-opacity:0.6"/><stop offset="0.78" style="stop-color:white;stop-opacity:0"/><stop offset="1" style="stop-color:white;stop-opacity:0"/></linearGradient>
        <linearGradient id="_Linear10" x1="0" y1="0" x2="1" y2="0" gradientUnits="userSpaceOnUse" gradientTransform="matrix(4.2309,0,0,4.2309,54.5722,116.686)"><stop offset="0" style="stop-color:white;stop-opacity:0.6"/><stop offset="0.29" style="stop-color:white;stop-opacity:0.6"/><stop offset="0.78" style="stop-color:white;stop-opacity:0"/><stop offset="1" style="stop-color:white;stop-opacity:0"/></linearGradient>
        <linearGradient id="_Linear11" x1="0" y1="0" x2="1" y2="0" gradientUnits="userSpaceOnUse" gradientTransform="matrix(4.2309,0,0,4.2309,69.162,115.267)"><stop offset="0" style="stop-color:white;stop-opacity:0.6"/><stop offset="0.29" style="stop-color:white;stop-opacity:0.6"/><stop offset="0.78" style="stop-color:white;stop-opacity:0"/><stop offset="1" style="stop-color:white;stop-opacity:0"/></linearGradient>
        <linearGradient id="_Linear12" x1="0" y1="0" x2="1" y2="0" gradientUnits="userSpaceOnUse" gradientTransform="matrix(3.1763,0,0,3.1763,62.6869,122.424)"><stop offset="0" style="stop-color:white;stop-opacity:0.6"/><stop offset="0.29" style="stop-color:white;stop-opacity:0.6"/><stop offset="0.78" style="stop-color:white;stop-opacity:0"/><stop offset="1" style="stop-color:white;stop-opacity:0"/></linearGradient>
        <linearGradient id="_Linear13" x1="0" y1="0" x2="1" y2="0" gradientUnits="userSpaceOnUse" gradientTransform="matrix(3.1763,0,0,3.1763,75.5437,120.92)"><stop offset="0" style="stop-color:white;stop-opacity:0.6"/><stop offset="0.29" style="stop-color:white;stop-opacity:0.6"/><stop offset="0.78" style="stop-color:white;stop-opacity:0"/><stop offset="1" style="stop-color:white;stop-opacity:0"/></linearGradient>
        <linearGradient id="_Linear14" x1="0" y1="0" x2="1" y2="0" gradientUnits="userSpaceOnUse" gradientTransform="matrix(6.9094,0,0,6.9094,40.9041,113.917)"><stop offset="0" style="stop-color:white;stop-opacity:0.6"/><stop offset="0.29" style="stop-color:white;stop-opacity:0.6"/><stop offset="0.78" style="stop-color:white;stop-opacity:0"/><stop offset="1" style="stop-color:white;stop-opacity:0"/></linearGradient>
        <linearGradient id="_Linear15" x1="0" y1="0" x2="1" y2="0" gradientUnits="userSpaceOnUse" gradientTransform="matrix(6.9094,0,0,6.9094,81.9424,102.614)"><stop offset="0" style="stop-color:white;stop-opacity:0.6"/><stop offset="0.29" style="stop-color:white;stop-opacity:0.6"/><stop offset="0.78" style="stop-color:white;stop-opacity:0"/><stop offset="1" style="stop-color:white;stop-opacity:0"/></linearGradient>
    </defs>
</svg>
