<?xml version="1.0" encoding="utf-8"?>
<!-- Generator: Adobe Illustrator 25.1.0, SVG Export Plug-In . SVG Version: 6.00 Build 0)  -->
<svg version="1.1" id="Layer_1" xmlns="http://www.w3.org/2000/svg" xmlns:xlink="http://www.w3.org/1999/xlink" x="0px" y="0px"
	 viewBox="0 0 194 48" style="enable-background:new 0 0 194 48;" xml:space="preserve">
<style type="text/css">
	.st0{fill:#FFFFFF;}
	.st1{fill:#5E12A0;}
	.st2{fill:url(#SVGID_1_);}
	.st3{fill:url(#SVGID_2_);}
	.st4{opacity:0.6;fill:#A98698;enable-background:new    ;}
	.st5{opacity:0.6;fill:url(#SVGID_3_);enable-background:new    ;}
	.st6{opacity:0.6;fill:url(#SVGID_4_);enable-background:new    ;}
	.st7{fill:url(#SVGID_5_);}
	.st8{opacity:0.6;}
	.st9{opacity:0.6;fill:url(#SVGID_6_);enable-background:new    ;}
	.st10{opacity:0.7;}
	.st11{opacity:0.7;fill:url(#SVGID_7_);enable-background:new    ;}
	.st12{fill:url(#SVGID_8_);}
	.st13{opacity:0.6;fill:url(#SVGID_9_);enable-background:new    ;}
	.st14{opacity:0.2;fill:#FFFFFF;enable-background:new    ;}
	.st15{opacity:0.4;}
	.st16{opacity:0.6;fill:url(#SVGID_10_);enable-background:new    ;}
	.st17{opacity:0.3;fill:#FFFFFF;enable-background:new    ;}
	.st18{opacity:0.6;fill:url(#SVGID_11_);enable-background:new    ;}
	.st19{opacity:0.6;fill:url(#SVGID_12_);enable-background:new    ;}
	.st20{opacity:0.6;fill:url(#SVGID_13_);enable-background:new    ;}
	.st21{opacity:0.6;fill:url(#SVGID_14_);enable-background:new    ;}
	.st22{opacity:0.6;fill:url(#SVGID_15_);enable-background:new    ;}
</style>
<path class="st0" d="M52,27.2C52,20.7,56.7,16,63.3,16s11.3,4.7,11.3,11.1c0,6.5-4.7,11.1-11.3,11.1C56.8,38.3,52,33.7,52,27.2z
	 M69.8,27.2c0-4-2.6-7.1-6.6-7.1c-4,0-6.5,3.1-6.5,7.1c0,4,2.6,7.1,6.5,7.1C67.2,34.2,69.8,31.2,69.8,27.2z"/>
<path class="st0" d="M76.3,34.9l2.5-3.5c1.5,1.6,3.9,2.9,6.8,2.9c2.5,0,3.8-1.2,3.8-2.4c0-3.8-12.4-1.2-12.4-9.3
	C77,19,80,16,85.1,16c3.4,0,6.3,1,8.4,3L91,22.4c-1.7-1.6-4.1-2.4-6.3-2.4c-2,0-3.1,0.9-3.1,2.1c0,3.4,12.4,1.1,12.4,9.2
	c0,4-2.8,6.9-8.6,6.9C81.3,38.3,78.3,36.9,76.3,34.9z"/>
<path class="st0" d="M115.9,37.9V22.8l-6.1,15.1h-2l-6.1-15.1v15.1h-4.6V16.4h6.4l5.2,13l5.2-13h6.5v21.5L115.9,37.9L115.9,37.9z"/>
<path class="st0" d="M123.7,27.2c0-6.5,4.7-11.1,11.3-11.1c6.5,0,11.3,4.7,11.3,11.1c0,6.5-4.7,11.1-11.3,11.1
	C128.5,38.3,123.7,33.7,123.7,27.2z M141.5,27.2c0-4-2.6-7.1-6.6-7.1c-4,0-6.5,3.1-6.5,7.1c0,4,2.6,7.1,6.5,7.1
	C138.9,34.2,141.5,31.2,141.5,27.2z"/>
<path class="st0" d="M148,34.9l2.5-3.5c1.5,1.6,3.9,2.9,6.8,2.9c2.5,0,3.8-1.2,3.8-2.4c0-3.8-12.4-1.2-12.4-9.3
	c0-3.6,3.1-6.6,8.2-6.6c3.4,0,6.3,1,8.4,3l-2.6,3.3c-1.7-1.6-4.1-2.4-6.3-2.4c-2,0-3.1,0.9-3.1,2.1c0,3.4,12.4,1.1,12.4,9.2
	c0,4-2.8,6.9-8.6,6.9C153,38.3,150,36.9,148,34.9z"/>
<path class="st0" d="M168.8,37.9V16.4h4.6v21.5L168.8,37.9L168.8,37.9z"/>
<path class="st0" d="M176.3,34.9l2.5-3.5c1.5,1.6,3.9,2.9,6.8,2.9c2.5,0,3.8-1.2,3.8-2.4c0-3.8-12.4-1.2-12.4-9.3
	c0-3.6,3.1-6.6,8.2-6.6c3.4,0,6.3,1,8.4,3l-2.6,3.3c-1.7-1.6-4.1-2.4-6.3-2.4c-2,0-3.1,0.9-3.1,2.1c0,3.4,12.4,1.1,12.4,9.2
	c0,4-2.8,6.9-8.6,6.9C181.2,38.3,178.2,36.9,176.3,34.9z"/>
<path class="st1" d="M43.9,8.5c-0.5-1.9-2.1-3.8-4.9-5.9C36.7,1,34.3,0,32.4,0c-0.4,0-0.7,0-1.1,0.1c-0.9,0.2-1.6,0.8-2.1,1.8
	c-0.6,1.1-0.7,2.7-0.3,3.6c0.1,0.3,0.3,0.6,0.5,1c-1.8,1.1-2.9,1.5-3,1.5c4.8,1.6,8.8,5,11.3,9.5l0-0.4c0.1-1.2,0.5-2.5,0.9-3.9
	c0.5,0.1,1,0.2,1.5,0.2c1.3,0,2.4-0.5,3.1-1.5C43.9,10.8,44.2,9.6,43.9,8.5z"/>
<radialGradient id="SVGID_1_" cx="-189.0506" cy="307.6693" r="1" gradientTransform="matrix(15.5992 0 0 -15.8678 2991.2964 4888.5674)" gradientUnits="userSpaceOnUse">
	<stop  offset="0" style="stop-color:#FFEAFF;stop-opacity:0.6"/>
	<stop  offset="0.6807" style="stop-color:#A087C9"/>
	<stop  offset="1" style="stop-color:#10002F"/>
</radialGradient>
<path class="st2" d="M38.8,12c3.2,0.9,4.5-1.6,4-3.3c-0.5-1.7-1.9-3.4-4.5-5.3c-2.6-1.9-5.2-2.7-6.9-2.3c-1.7,0.4-2.2,2.9-1.7,3.9
	c0.2,0.4,0.6,1,1.1,1.6c-0.7,0.5-1.3,0.8-1.8,1.1c3.2,1.5,6,3.7,8.1,6.6c0.2-1,0.6-1.8,0.9-2.6C38.3,11.9,38.6,11.9,38.8,12z"/>
<radialGradient id="SVGID_2_" cx="-196.7073" cy="317.9166" r="1" gradientTransform="matrix(38.1657 0 0 -38.8229 7541.0508 12355.7422)" gradientUnits="userSpaceOnUse">
	<stop  offset="0" style="stop-color:#FFEAFF;stop-opacity:0.6"/>
	<stop  offset="0.6807" style="stop-color:#A087C9"/>
	<stop  offset="1" style="stop-color:#10002F"/>
</radialGradient>
<path class="st3" d="M20.7,46.8c10.8,0,19.5-8.9,19.5-19.8S31.4,7.1,20.7,7.1C9.9,7.1,1.2,16,1.2,27S9.9,46.8,20.7,46.8z"/>
<path class="st4" d="M41.3,7.1c-2.7-2.8-4.9-3.6-7.6-4.2c-2.1-0.5-1.5-1.7,1-1.5c-1.2-0.4-2.4-0.5-3.2-0.4c-1.7,0.4-2.2,2.9-1.7,3.9
	c0.2,0.4,0.6,1,1.1,1.6c-0.9,0.6-1.7,1.1-2.4,1.5c0.3,0.1,0.7,0.3,1.2,0.6c1.2,0.6,2.5,1.7,2.5,1.7c-2-1.7-1.5-2.5,1.2-4.4
	c0.8-0.6,2.4-0.5,3.8,0.2s3.1,2.6,3.1,2.6L38.5,12c0.1,0,0.2,0.1,0.3,0.1c1,0.3,1.8,0.2,2.4,0C42,11.6,43.9,10,41.3,7.1z"/>
<path class="st1" d="M33.7,4.7c0.7,0.3,1.6,0.8,2.7,1.5c1.3,0.9,2.5,1.9,3.2,2.7c-1.2,1.6-2,3.9-2.5,5.4c0.2,0.4,0.5,0.7,0.8,1.1
	c0.2-0.9,0.7-2.2,1.2-3.5c0.1,0,0.3,0,0.5,0c0.4,0,0.9-0.1,1.3-0.4c0.3-0.2,0.6-0.6,0.6-1.3c0-0.7-0.5-1.5-1.6-2.6
	C39.1,6.9,38,6,37,5.3c-3-2-5.1-2.6-6-1.6c-0.6,0.6-0.6,1.4-0.3,2c-1.1,0.7-2.1,1.3-2.7,1.6c0.4,0.1,0.8,0.3,1.2,0.5
	C30.2,7.2,31.8,6.1,33.7,4.7z M40.3,9.7c0.1,0.2,0.1,0.4,0.1,0.5c0,0.3-0.1,0.4-0.2,0.5c-0.1,0.1-0.4,0.2-0.7,0.2
	C39.8,10.4,40,10.1,40.3,9.7z M31.7,4.4c0.1-0.1,0.4-0.2,0.8-0.1c-0.3,0.3-0.7,0.5-1,0.8C31.4,4.9,31.4,4.6,31.7,4.4z"/>
<path class="st1" d="M20.7,6C9.2,6,0,15.4,0,27s9.2,21,20.7,21c11.4,0,20.7-9.4,20.7-21S32,6,20.7,6z M20.7,46.8
	C9.9,46.8,1.2,38,1.2,27S9.9,7.1,20.7,7.1C31.4,7.1,40.2,16,40.2,27S31.4,46.8,20.7,46.8z"/>
<linearGradient id="SVGID_3_" gradientUnits="userSpaceOnUse" x1="17.4342" y1="3.4416" x2="23.8897" y2="42.5936" gradientTransform="matrix(1 0 0 -1 0 50)">
	<stop  offset="0" style="stop-color:#81FFFF"/>
	<stop  offset="0.6202" style="stop-color:#FFFFFF;stop-opacity:0"/>
</linearGradient>
<path class="st5" d="M20.7,46.8c10.8,0,19.5-8.9,19.5-19.8S31.4,7.1,20.7,7.1C9.9,7.1,1.2,16,1.2,27S9.9,46.8,20.7,46.8z"/>
<path class="st4" d="M20.5,44.4C9.9,42.7,2.7,32.5,4.4,21.7c0.8-4.8,3.1-8.9,6.5-11.8c-4.9,2.9-8.5,7.9-9.5,14
	c-1.7,10.8,5.5,21,16.1,22.8c5.9,1,11.7-0.9,15.9-4.6C29.7,44.2,25.1,45.2,20.5,44.4z"/>
<linearGradient id="SVGID_4_" gradientUnits="userSpaceOnUse" x1="34.5786" y1="36.3109" x2="18.194" y2="21.5321" gradientTransform="matrix(1 0 0 -1 0 50)">
	<stop  offset="0.2888" style="stop-color:#FFFFFF"/>
	<stop  offset="0.7796" style="stop-color:#FFFFFF;stop-opacity:0"/>
</linearGradient>
<path class="st6" d="M23.8,7.4c-4.9-0.8-9.7,0.3-13.6,2.8c-0.1,0.1-0.1,0.1-0.1,0.1c1.5-0.9,3.7-1.7,3.7-1.7
	c-5.7,3.3-7.4,7.1-7.4,7.1C8.5,11.5,15,8.4,20,8.2c5.1-0.2,8.4,1.3,12.4,4.6c4,3.3,6.5,10.2,6.2,15.6c-0.2,5.4-3,9.8-3,9.8
	c1.9-2.5,3.1-4.4,3.8-6.2c0.1-0.6,0.3-1.1,0.3-1.7C41.6,19.3,34.4,9.2,23.8,7.4z"/>
<linearGradient id="SVGID_5_" gradientUnits="userSpaceOnUse" x1="2.0941" y1="13.7692" x2="39.195" y2="13.7692" gradientTransform="matrix(1 0 0 -1 0 50)">
	<stop  offset="0" style="stop-color:#0002E9"/>
	<stop  offset="0.9952" style="stop-color:#FF00C7"/>
</linearGradient>
<path class="st7" d="M39.2,26.8c0,10.4-8.3,18.9-18.5,18.9S2.1,37.2,2.1,26.8H39.2z"/>
<g class="st8">
	
		<linearGradient id="SVGID_6_" gradientUnits="userSpaceOnUse" x1="41.0389" y1="21.4359" x2="20.5338" y2="2.3853" gradientTransform="matrix(1 0 0 -1 0 50)">
		<stop  offset="0.2888" style="stop-color:#FFFFFF"/>
		<stop  offset="0.7796" style="stop-color:#FFFFFF;stop-opacity:0"/>
	</linearGradient>
	<path class="st9" d="M37.7,26.8c0,10.2-7.9,18.5-17.8,18.9c0.2,0,0.5,0,0.7,0c10.2,0,18.5-8.4,18.5-18.9H37.7z"/>
</g>
<g class="st10">
	
		<linearGradient id="SVGID_7_" gradientUnits="userSpaceOnUse" x1="2.0941" y1="13.7692" x2="21.9185" y2="13.7692" gradientTransform="matrix(1 0 0 -1 0 50)">
		<stop  offset="0" style="stop-color:#000292"/>
		<stop  offset="0.9952" style="stop-color:#7D00C7"/>
	</linearGradient>
	<path class="st11" d="M4.7,26.8H2.1c0,10.4,8.3,18.9,18.5,18.9c0.5,0,0.9,0,1.3,0C12.3,44.9,4.7,36.7,4.7,26.8z"/>
</g>
<linearGradient id="SVGID_8_" gradientUnits="userSpaceOnUse" x1="2.1347" y1="21.4632" x2="39.1611" y2="21.4632" gradientTransform="matrix(1 0 0 -1 0 50)">
	<stop  offset="0" style="stop-color:#000292"/>
	<stop  offset="0.9952" style="stop-color:#BE00C7"/>
</linearGradient>
<path class="st12" d="M39.2,27c0-2.2-3.7-3.4-8.6-3.8c-3.6-0.3-7.2,0.1-11.3,1.3c-3.6,1.1-6.8,0.9-9.1,0.6C5,24.5,2.1,24.4,2.1,27
	c0,3.7,7.4,8.3,18.5,6.7c5.6-0.8,8.5-2.5,11.8-3.6C36,28.9,39.2,28.9,39.2,27z"/>
<path class="st0" d="M26.7,18c1.7,0,3.1-1.4,3.1-3.2s-1.4-3.2-3.1-3.2s-3.1,1.4-3.1,3.2S25,18,26.7,18z"/>
<path class="st0" d="M31.9,20.4c0.7,0,1.3-0.6,1.3-1.3s-0.6-1.3-1.3-1.3c-0.7,0-1.3,0.6-1.3,1.3S31.1,20.4,31.9,20.4z"/>
<g class="st8">
	
		<linearGradient id="SVGID_9_" gradientUnits="userSpaceOnUse" x1="38.5999" y1="41.6231" x2="35.8724" y2="37.2658" gradientTransform="matrix(1 0 0 -1 0 50)">
		<stop  offset="0.2888" style="stop-color:#FFFFFF"/>
		<stop  offset="0.7796" style="stop-color:#FFFFFF;stop-opacity:0"/>
	</linearGradient>
	<path class="st13" d="M36.6,12.3C36.6,12.3,36.5,12.3,36.6,12.3c-0.3,0-0.4-0.2-0.4-0.5c0.3-1.6,1.6-3.2,1.7-3.3
		c0.1-0.2,0.4-0.2,0.6,0c0.2,0.1,0.2,0.4,0,0.6c0,0-1.3,1.5-1.5,2.9C37,12.2,36.8,12.3,36.6,12.3z"/>
</g>
<path class="st14" d="M19.4,41.8c0.5,0,1-0.4,1-1s-0.4-1-1-1s-1,0.4-1,1S18.8,41.8,19.4,41.8z"/>
<g class="st15">
	
		<linearGradient id="SVGID_10_" gradientUnits="userSpaceOnUse" x1="18.3847" y1="9.1984" x2="19.8613" y2="9.1984" gradientTransform="matrix(1 0 0 -1 0 50)">
		<stop  offset="0.2888" style="stop-color:#FFFFFF"/>
		<stop  offset="0.7796" style="stop-color:#FFFFFF;stop-opacity:0"/>
	</linearGradient>
	<path class="st16" d="M18.8,41.4c-0.4-0.4-0.4-1,0-1.4c0.1-0.1,0.1-0.1,0.2-0.2c-0.1,0-0.2,0.1-0.3,0.2c-0.4,0.4-0.4,1,0,1.4
		c0.3,0.3,0.8,0.4,1.2,0.2C19.5,41.8,19.1,41.7,18.8,41.4z"/>
</g>
<path class="st17" d="M19.7,40.5c0.1,0,0.2-0.1,0.2-0.2c0-0.1-0.1-0.2-0.2-0.2c-0.1,0-0.2,0.1-0.2,0.2
	C19.5,40.4,19.6,40.5,19.7,40.5z"/>
<path class="st14" d="M24.5,41.3c0.5,0,1-0.4,1-1c0-0.5-0.4-1-1-1c-0.5,0-1,0.4-1,1C23.5,40.8,23.9,41.3,24.5,41.3z"/>
<g class="st15">
	
		<linearGradient id="SVGID_11_" gradientUnits="userSpaceOnUse" x1="23.4758" y1="9.6959" x2="24.9525" y2="9.6959" gradientTransform="matrix(1 0 0 -1 0 50)">
		<stop  offset="0.2888" style="stop-color:#FFFFFF"/>
		<stop  offset="0.7796" style="stop-color:#FFFFFF;stop-opacity:0"/>
	</linearGradient>
	<path class="st18" d="M23.9,40.9c-0.4-0.4-0.4-1,0-1.4c0.1-0.1,0.1-0.1,0.2-0.2c-0.1,0-0.2,0.1-0.3,0.2c-0.4,0.4-0.4,1,0,1.4
		c0.3,0.3,0.8,0.4,1.2,0.2C24.6,41.3,24.2,41.2,23.9,40.9z"/>
</g>
<path class="st17" d="M24.8,40c0.1,0,0.2-0.1,0.2-0.2c0-0.1-0.1-0.2-0.2-0.2c-0.1,0-0.2,0.1-0.2,0.2C24.6,39.9,24.7,40,24.8,40z"/>
<path class="st14" d="M22,43.6c0.4,0,0.7-0.3,0.7-0.7s-0.3-0.7-0.7-0.7s-0.7,0.3-0.7,0.7S21.5,43.6,22,43.6z"/>
<g class="st15">
	
		<linearGradient id="SVGID_12_" gradientUnits="userSpaceOnUse" x1="21.2159" y1="7.1269" x2="22.3245" y2="7.1269" gradientTransform="matrix(1 0 0 -1 0 50)">
		<stop  offset="0.2888" style="stop-color:#FFFFFF"/>
		<stop  offset="0.7796" style="stop-color:#FFFFFF;stop-opacity:0"/>
	</linearGradient>
	<path class="st19" d="M21.5,43.3c-0.3-0.3-0.3-0.8,0-1.1c0,0,0.1-0.1,0.1-0.1c-0.1,0-0.2,0.1-0.2,0.2c-0.3,0.3-0.3,0.8,0,1.1
		c0.2,0.2,0.6,0.3,0.9,0.1C22.1,43.6,21.7,43.5,21.5,43.3z"/>
</g>
<path class="st17" d="M22.2,42.6c0.1,0,0.1-0.1,0.1-0.1c0-0.1-0.1-0.1-0.1-0.1c-0.1,0-0.1,0.1-0.1,0.1
	C22.1,42.5,22.1,42.6,22.2,42.6z"/>
<path class="st14" d="M26.5,43.1c0.4,0,0.7-0.3,0.7-0.7c0-0.4-0.3-0.7-0.7-0.7s-0.7,0.3-0.7,0.7C25.7,42.7,26.1,43.1,26.5,43.1z"/>
<g class="st15">
	
		<linearGradient id="SVGID_13_" gradientUnits="userSpaceOnUse" x1="25.7031" y1="7.6596" x2="26.8117" y2="7.6596" gradientTransform="matrix(1 0 0 -1 0 50)">
		<stop  offset="0.2888" style="stop-color:#FFFFFF"/>
		<stop  offset="0.7796" style="stop-color:#FFFFFF;stop-opacity:0"/>
	</linearGradient>
	<path class="st20" d="M26,42.8c-0.3-0.3-0.3-0.8,0-1.1c0,0,0.1-0.1,0.1-0.1c-0.1,0-0.2,0.1-0.2,0.2c-0.3,0.3-0.3,0.8,0,1.1
		c0.2,0.2,0.6,0.3,0.9,0.1C26.6,43.1,26.2,43,26,42.8z"/>
</g>
<path class="st17" d="M26.7,42.1c0.1,0,0.1-0.1,0.1-0.1c0-0.1-0.1-0.1-0.1-0.1c-0.1,0-0.1,0.1-0.1,0.1C26.6,42,26.6,42.1,26.7,42.1z
	"/>
<path class="st14" d="M15.2,41.4c0.9,0,1.6-0.7,1.6-1.6c0-0.9-0.7-1.6-1.6-1.6c-0.9,0-1.6,0.7-1.6,1.6
	C13.6,40.7,14.3,41.4,15.2,41.4z"/>
<g class="st15">
	
		<linearGradient id="SVGID_14_" gradientUnits="userSpaceOnUse" x1="13.6141" y1="10.1551" x2="16.0256" y2="10.1551" gradientTransform="matrix(1 0 0 -1 0 50)">
		<stop  offset="0.2888" style="stop-color:#FFFFFF"/>
		<stop  offset="0.7796" style="stop-color:#FFFFFF;stop-opacity:0"/>
	</linearGradient>
	<path class="st21" d="M14.3,40.8c-0.6-0.6-0.6-1.7,0-2.3c0.1-0.1,0.2-0.2,0.3-0.2c-0.2,0.1-0.4,0.2-0.6,0.4c-0.6,0.6-0.6,1.7,0,2.3
		c0.5,0.5,1.3,0.6,2,0.2C15.5,41.4,14.8,41.3,14.3,40.8z"/>
</g>
<path class="st17" d="M15.8,39.3c0.2,0,0.3-0.2,0.3-0.4s-0.2-0.4-0.3-0.4c-0.2,0-0.3,0.2-0.3,0.4S15.6,39.3,15.8,39.3z"/>
<path class="st14" d="M29.6,37.4c0.9,0,1.6-0.7,1.6-1.6c0-0.9-0.7-1.6-1.6-1.6c-0.9,0-1.6,0.7-1.6,1.6C28,36.7,28.7,37.4,29.6,37.4z
	"/>
<g class="st15">
	
		<linearGradient id="SVGID_15_" gradientUnits="userSpaceOnUse" x1="27.9364" y1="14.1668" x2="30.348" y2="14.1668" gradientTransform="matrix(1 0 0 -1 0 50)">
		<stop  offset="0.2888" style="stop-color:#FFFFFF"/>
		<stop  offset="0.7796" style="stop-color:#FFFFFF;stop-opacity:0"/>
	</linearGradient>
	<path class="st22" d="M28.6,36.8c-0.6-0.6-0.6-1.7,0-2.3c0.1-0.1,0.2-0.2,0.3-0.2c-0.2,0.1-0.4,0.2-0.6,0.4c-0.6,0.6-0.6,1.7,0,2.3
		c0.5,0.5,1.3,0.6,2,0.2C29.8,37.4,29.1,37.3,28.6,36.8z"/>
</g>
<path class="st17" d="M30.1,35.3c0.2,0,0.3-0.2,0.3-0.4c0-0.2-0.2-0.4-0.3-0.4c-0.2,0-0.3,0.2-0.3,0.4
	C29.8,35.1,29.9,35.3,30.1,35.3z"/>
</svg>
