<?xml version="1.0" encoding="iso-8859-1"?>
<!-- Generator: Adobe Illustrator 19.0.0, SVG Export Plug-In . SVG Version: 6.00 Build 0)  -->
<svg version="1.1" id="Layer_1" xmlns="http://www.w3.org/2000/svg" xmlns:xlink="http://www.w3.org/1999/xlink" x="0px" y="0px"
	 viewBox="0 0 512 512" style="enable-background:new 0 0 512 512;" xml:space="preserve">
<g>
	<g>
		<path d="M182.315,380.595v120.114c0,6.235,5.056,11.291,11.291,11.291H313.72L182.315,380.595z"/>
	</g>
</g>
<g>
	<g>
		<path d="M256.001,0C153.794,0,70.642,83.152,70.642,185.358c0,6.235,5.056,11.291,11.291,11.291h7.148l148.897,167.978h-39.697
			l131.405,131.405V375.918c0-6.235-5.056-11.291-11.291-11.291h-44.373L422.919,196.65h7.148c6.235,0,11.291-5.056,11.291-11.291
			C441.359,83.152,358.208,0,256.001,0z M134.346,196.649h47.974l30.233,88.229L134.346,196.649z M256.002,307.178l-37.873-110.529
			h75.746L256.002,307.178z M299.45,284.877l30.232-88.229h47.975L299.45,284.877z"/>
	</g>
</g>
<g>
</g>
<g>
</g>
<g>
</g>
<g>
</g>
<g>
</g>
<g>
</g>
<g>
</g>
<g>
</g>
<g>
</g>
<g>
</g>
<g>
</g>
<g>
</g>
<g>
</g>
<g>
</g>
<g>
</g>
</svg>
