<svg xmlns="http://www.w3.org/2000/svg" width="24" height="24" viewBox="0 0 24 24"><path d="M20.001 13.375v-3.213c0-.77.481-1.162.992-1.162.506 0 1.007.383 1.007 1.163v4.086c0 .796-.072 1.179-.574 2.092-.793 1.441-2.24 3.807-2.24 6.66h-5.003s-.559-1.759-.763-2.942c-.411-2.377.126-3.471 1.109-4.485 1.022-1.053 1.528-1.551 1.996-2.035 1.081-1.121 2.552.194 1.694 1.222-.468.561-1.624 1.803-1.901 2.171-.268.356.231.857.624.447.573-.599 1.905-2.083 2.365-2.618.443-.517.694-.829.694-1.386zm-16.002 0v-3.213c0-.77-.478-1.162-.989-1.162-.505 0-1.009.383-1.009 1.163v4.086c0 .796.072 1.179.574 2.092.793 1.441 2.242 3.461 2.242 6.66h5.003s.559-1.759.763-2.942c.411-2.377-.126-3.471-1.109-4.485-1.022-1.053-1.528-1.551-1.996-2.035-1.081-1.121-2.552.194-1.694 1.222.468.561 1.624 1.803 1.901 2.171.268.356-.231.857-.624.447-.573-.599-1.905-2.083-2.365-2.618-.443-.517-.697-.829-.697-1.386zm8.001-12.375c-2.436 3.599-4 5.85-4 8.037 0 2.19 1.789 3.963 4 3.963s4-1.773 4-3.963c0-2.187-1.564-4.438-4-8.037zm-.014 2.56c.235.362.514.994.514 1.66 0 1.954-2 2.274-2 1.085 0-.817.994-2.022 1.486-2.745z"/></svg>