<?xml version="1.0" encoding="utf-8"?>
<!-- Generator: Adobe Illustrator 24.3.0, SVG Export Plug-In . SVG Version: 6.00 Build 0)  -->
<svg version="1.1" id="Layer_1" xmlns="http://www.w3.org/2000/svg" xmlns:xlink="http://www.w3.org/1999/xlink" x="0px" y="0px"
	 viewBox="0 0 18 18" style="enable-background:new 0 0 18 18;" xml:space="preserve">
<g id="Layer_2_1_">
	<g id="Layer_1-2">
		<path d="M5.9,15.7c5.3,0,9.6-4.2,9.7-9.5c0,0,0-0.1,0-0.1c0-0.2,0-0.3,0-0.4c0.7-0.5,1.2-1.1,1.7-1.8c-0.6,0.3-1.3,0.5-2,0.5
			C16,4,16.5,3.3,16.8,2.6c-0.7,0.4-1.4,0.7-2.2,0.8C13.3,2,11.1,2,9.8,3.3c-0.6,0.6-1,1.5-1,2.3c0,0.3,0,0.5,0.1,0.8
			C6.2,6.3,3.6,5,1.9,2.9C1,4.5,1.4,6.4,2.9,7.4C2.4,7.4,1.9,7.3,1.4,7l0,0c0,1.6,1.1,3,2.7,3.3c-0.3,0.1-0.6,0.1-0.9,0.1
			c-0.2,0-0.4,0-0.6-0.1c0.4,1.4,1.7,2.3,3.2,2.3c-1.2,0.9-2.7,1.4-4.2,1.4c-0.3,0-0.5,0-0.8,0C2.3,15.2,4.1,15.7,5.9,15.7"/>
	</g>
</g>
</svg>
