<svg xmlns="http://www.w3.org/2000/svg" xmlns:xlink="http://www.w3.org/1999/xlink" width="160" height="184.75" viewBox="0 0 160 184.75"><defs><style>.cls-1{fill:none;}.cls-2{isolation:isolate;}.cls-3,.cls-7{fill:#2845ae;}.cls-4,.cls-8{fill:#fff;}.cls-5{fill:#5493f7;}.cls-6{clip-path:url(#clip-path);}.cls-7{opacity:0.3;mix-blend-mode:multiply;}.cls-8{opacity:0.15;}</style><clipPath id="clip-path" transform="translate(0 1.55)"><path class="cls-1" d="M75,1.34,2.5,43.2A5,5,0,0,0,0,47.53v86.6a5,5,0,0,0,2.5,4.33l75,43.3a5,5,0,0,0,5,0l75-43.3a5,5,0,0,0,2.5-4.33V47.53a5,5,0,0,0-2.5-4.33L85,1.34A10,10,0,0,0,75,1.34Z"/></clipPath></defs><title>jigu</title><g class="cls-2"><g id="Layer_2" data-name="Layer 2"><g id="Osmosis_Jigu"><path class="cls-3" d="M75,1.34,2.5,43.2A5,5,0,0,0,0,47.53v86.6a5,5,0,0,0,2.5,4.33l75,43.3a5,5,0,0,0,5,0l75-43.3a5,5,0,0,0,2.5-4.33V47.53a5,5,0,0,0-2.5-4.33L85,1.34A10,10,0,0,0,75,1.34Z" transform="translate(0 1.55)"/><circle class="cls-4" cx="80" cy="92.38" r="48"/><path class="cls-5" d="M99.51,132.19a13.74,13.74,0,0,1,4-2c1.44-.53,2.86-.58,4.12-1.4,1.54-1,1.55-2.45,1.94-4.15.33-1.45.15-3.13.85-4.44.61-1.13,2.19-1.94,3.2-2.83,2.64-2.32,2-6.3-1.8-6.62-1.48-.12-2.8.15-4.29-.25a45.17,45.17,0,0,1-4.68-1.61c-1.26-.5-4.09-5.66-6.86-7.33-4.5-2.7-8.31-2.31-13.11-2.87C77.09,98,75,96,73.14,95.49c-1.36-.38-3.66-1.28-5.88-.41a6.78,6.78,0,0,0-3,9.09c1.76,3.86-.85,8.16,2.69,14.44s7,6.15,7.77,8.93a18.44,18.44,0,0,1,.16,9,12.65,12.65,0,0,0-.38,1.95,47.66,47.66,0,0,0,22.17-2.65c.09-.08.2-.16.28-.24C98,134.6,98.39,133.11,99.51,132.19Z" transform="translate(0 1.55)"/><path class="cls-5" d="M117.43,60.8c-1-.84-2.47-1.81-3.35-.26-1.33,2.33.79,4.93-1.12,9.17s1,9.88,2.16,11.69.92,4.14.89,6.19,1.83,3.88,4.39,4.81,3.87,4.81,5.64,4.4c1.06-.25,1.59-1.58,1.84-2.66A47.88,47.88,0,0,0,117.43,60.8Z" transform="translate(0 1.55)"/><path class="cls-5" d="M90.33,49.12c4.31,2,5.12-.44,7.47,1.4,1.78,1.39,3.82,4.48.57,7.16C97,58.81,94.71,59.4,95.43,62c.4,1.45,1.84,2.4,4.71,2.81s7.73-.51,7.31-4.26c-.17-1.58-.48-2.78-.65-5.16S104.7,51.87,105,51a1.19,1.19,0,0,1,.79-.66,48.07,48.07,0,0,0-24.12-7.49,28.79,28.79,0,0,1,3.81,2.25C87.57,46.47,88.08,48.11,90.33,49.12Z" transform="translate(0 1.55)"/><path class="cls-5" d="M53.13,108.67a2.09,2.09,0,0,0-.22-3.55c-1-.58-2.87-1-3.49-1.91-.75-1.15,1.14-2.24-.35-4.57s-3.93-.91-5.39-2.56-2.16-3.38-1-5.1,3.3-3.07,6.54-1.78,7.05,2.34,9,1.41,1.15-3.38,3.58-4.83,4.38-2.77,5.58-5.84a10.08,10.08,0,0,1,3.65-5c1.33-.87,3.53,0,5.07-.34,2.85-.56,2.53-2.17,2.77-4.12S81,68.09,81,66.23s-2.34-2-4.33-3.8-3.08-5.07-5.38-6a4,4,0,0,0-5.07,2.41c-.54,2-1.34,3.33-3.67,3-1.94-.26-3.7-1.19-3.73-3.39,0-1.67,1.49-2.51,4.75-5s4.77-5,4-6.58-4.64-.61-5.1-.73a48,48,0,0,0-30.07,51c1.48,1.69,3.2,4.51,5.38,6.37a29.5,29.5,0,0,0,8.59,5.24C49.33,109.94,52.19,109.34,53.13,108.67Z" transform="translate(0 1.55)"/><g class="cls-6"><polygon class="cls-7" points="160 138.56 160 46.19 80 92.38 80 184.75 160 138.56"/><polygon class="cls-8" points="0 46.19 80 92.38 160 46.19 80 0 0 46.19"/></g></g></g></g></svg>
