<svg xmlns="http://www.w3.org/2000/svg" width="24" height="24" viewBox="0 0 24 24"><path d="M10.553 3.123c.47-.079.953-.123 1.447-.123 4.971 0 9 4.029 9 9 0 1.742-.5 3.363-1.359 4.738.226-.877.359-1.791.359-2.738 0-5.537-4.116-10.119-9.447-10.877zm12.447 8.877c0 .947-.133 1.861-.359 2.738.859-1.375 1.359-2.996 1.359-4.738 0-4.971-4.029-9-9-9-.494 0-.977.044-1.447.123 5.331.758 9.447 5.34 9.447 10.877zm-5 2c0 4.971-4.029 9-9 9s-9-4.029-9-9 4.029-9 9-9 9 4.029 9 9zm-5.584 1.736c0-1.787-1.86-2.285-3.286-2.955-.864-.449-.757-1.525.483-1.597.691-.042 1.396.162 2.036.387l.302-1.372c-.756-.23-1.43-.335-2.035-.352v-.847h-.832v.889c-1.621.223-2.488 1.24-2.488 2.375 0 2.032 2.373 2.342 3.148 2.703 1.061.474.863 1.458-.094 1.675-.83.188-1.893-.14-2.688-.45l-.378 1.37c.744.385 1.637.591 2.5.605v.833h.832v-.877c1.381-.194 2.503-.956 2.5-2.387z"/></svg>